<svg width="450" height="358" viewBox="0 0 450 358" fill="none" xmlns="http://www.w3.org/2000/svg">
<g clip-path="url(#clip0)">
<path d="M142.564 106.544L187.913 175.102H97.2152L142.564 106.544Z" fill="#EAEEF2"/>
<path d="M258.491 271.204C258.491 242.786 281.529 219.748 309.948 219.748C338.366 219.748 361.404 242.786 361.404 271.204H258.491Z" fill="#EAEEF2"/>
<path d="M399.481 333.969L444.319 267.29L399.572 341.143L399.666 348.646C396.393 348.671 393.151 348.616 389.941 348.482L392.165 252.035L392.104 251.291L392.186 251.148L392.399 242.034L343.296 170.742L392.341 235.213L392.515 237.139L394.195 164.27L351.783 90.3565L394.316 151.469L393.872 0.502455L393.873 0L393.887 0.49416L396.703 119.476L435.356 71.1455L396.829 129.726L397.673 194.906L433.242 131.293L397.803 204.489L398.273 240.732L450 152.12L398.43 253.376L399.481 333.969Z" fill="#D0CDE1"/>
<path d="M227.973 357.223C332.954 357.223 418.058 352.886 418.058 347.537C418.058 342.187 332.954 337.851 227.973 337.851C122.992 337.851 37.8882 342.187 37.8882 347.537C37.8882 352.886 122.992 357.223 227.973 357.223Z" fill="#D0CDE1"/>
<path d="M339.039 354.308C342.217 354.308 344.793 351.732 344.793 348.554C344.793 345.376 342.217 342.8 339.039 342.8C335.861 342.8 333.285 345.376 333.285 348.554C333.285 351.732 335.861 354.308 339.039 354.308Z" fill="#3F3D56"/>
<path d="M339.823 229.031L324.654 188.754C324.654 188.754 327.008 181.169 320.731 181.692C314.454 182.215 297.716 187.969 297.716 187.969C297.716 187.969 291.962 188.492 299.808 196.6L313.408 239.231L317.854 237.138L303.208 194.769C303.208 194.769 302.423 191.892 305.3 191.108C308.177 190.323 319.162 185.615 320.208 188.492C321.254 191.369 334.854 232.692 334.854 232.692L339.823 229.031Z" fill="#3F3D56"/>
<path d="M299.024 256.754L328.316 344.369C330.686 345.941 333.257 347.184 335.961 348.065C338.405 348.905 340.925 349.507 343.485 349.862C344.439 349.937 345.398 349.861 346.328 349.637C361.39 346.629 413.055 319 413.055 319C413.055 319 386.639 236.615 382.193 226.677C377.747 216.738 367.808 220.4 367.808 220.4C367.808 220.4 317.606 233.955 310.401 236.474C310.251 236.526 310.121 236.573 310.008 236.615C306.835 237.76 304.094 239.861 302.165 242.628L302.162 242.631C294.839 247.077 299.024 256.754 299.024 256.754Z" fill="#CC2B5E"/>
<path opacity="0.2" d="M320.05 233.3L320.192 233.804C322.459 233.169 324.39 238.226 324.409 238.276L356.578 327.458L357.07 327.281L352.991 315.973L396.803 296.621L400.254 306.532L400.748 306.36L371.969 223.686L371.953 223.661C371.851 223.499 369.424 219.707 366.546 220.47L366.68 220.976C369.084 220.336 371.289 223.602 371.494 223.916L377.586 241.415L331.528 256.47L324.9 238.096C324.814 237.866 322.779 232.536 320.05 233.3ZM377.758 241.908L382.245 254.799L336.902 271.37L331.706 256.963L377.758 241.908ZM342.256 286.212L337.08 271.862L382.417 255.293L386.872 268.091L342.256 286.212ZM387.044 268.585L391.928 282.615L347.387 300.438L342.433 286.704L387.044 268.585ZM352.813 315.479L347.565 300.931L392.1 283.109L396.631 296.125L352.813 315.479Z" fill="black"/>
<path opacity="0.2" d="M302.162 253.615C304.777 257.8 334.07 345.415 334.07 345.415C334.612 346.358 335.246 347.245 335.961 348.065C338.405 348.905 340.925 349.507 343.485 349.862C344.439 349.937 345.398 349.861 346.328 349.637C344.529 348.988 340.509 346.888 338.516 340.708C335.9 332.6 307.131 247.077 307.131 247.077C307.131 247.077 308.031 240.627 310.4 236.474C310.251 236.526 310.121 236.573 310.008 236.615C306.835 237.76 304.094 239.861 302.165 242.628L302.162 242.631C302.162 242.631 299.547 249.431 302.162 253.615Z" fill="black"/>
<path d="M307.393 272.969L310.27 281.862C310.27 281.862 307.916 299.385 320.208 310.892L322.823 319.785L320.121 319.858L317.267 311.321C317.267 311.321 307.785 299.884 307.72 282.765L305.3 272.969H307.393Z" fill="#3F3D56"/>
<path d="M356.693 354.439C359.871 354.439 362.447 351.862 362.447 348.685C362.447 345.507 359.871 342.931 356.693 342.931C353.515 342.931 350.939 345.507 350.939 348.685C350.939 351.862 353.515 354.439 356.693 354.439Z" fill="#3F3D56"/>
<path d="M412.531 330.246C415.709 330.246 418.285 327.67 418.285 324.492C418.285 321.315 415.709 318.739 412.531 318.739C409.353 318.739 406.777 321.315 406.777 324.492C406.777 327.67 409.353 330.246 412.531 330.246Z" fill="#3F3D56"/>
<path d="M205.877 79.662C205.877 79.662 192.559 82.0835 191.954 87.5317C191.608 91.3579 191.608 95.2075 191.954 99.0337L205.877 79.662Z" fill="#575A89"/>
<path d="M282.153 206.789C282.153 206.789 243.41 220.712 217.984 208.605C192.559 196.498 161.685 181.364 161.685 181.364C161.685 181.364 146.551 182.574 148.367 173.494C150.183 164.413 162.291 111.746 190.138 94.1908C190.138 94.1908 207.088 72.3976 216.774 73.6083C226.46 74.8191 263.992 164.413 263.992 164.413L282.153 206.789Z" fill="#575A89"/>
<path opacity="0.2" d="M282.153 206.789C282.153 206.789 243.41 220.712 217.984 208.605C192.559 196.498 161.685 181.364 161.685 181.364C161.685 181.364 146.551 182.574 148.367 173.494C150.183 164.413 162.291 111.746 190.138 94.1908C190.138 94.1908 207.088 72.3976 216.774 73.6083C226.46 74.8191 263.992 164.413 263.992 164.413L282.153 206.789Z" fill="black"/>
<path d="M302.736 174.099L305.157 180.153C305.157 180.153 320.897 189.839 314.238 196.498C307.579 203.157 297.555 185.299 297.555 185.299L293.655 177.731L302.736 174.099Z" fill="#A0616A"/>
<path d="M170.161 282.46L167.739 324.23L180.452 329.678L185.295 279.433L170.161 282.46Z" fill="#A0616A"/>
<path d="M221.617 282.46L238.567 304.253L243.41 318.782L255.517 318.176L258.544 303.648L241.594 286.697L221.617 282.46Z" fill="#A0616A"/>
<path d="M220.103 68.4627C229.13 68.4627 236.448 61.1449 236.448 52.1178C236.448 43.0908 229.13 35.7729 220.103 35.7729C211.076 35.7729 203.759 43.0908 203.759 52.1178C203.759 61.1449 211.076 68.4627 220.103 68.4627Z" fill="#A0616A"/>
<path d="M216.774 64.5279L217.985 79.662L237.356 73.6084C237.356 73.6084 230.092 62.1064 231.908 59.0796L216.774 64.5279Z" fill="#A0616A"/>
<path d="M216.774 73.6084C216.774 73.6084 228.243 76.6352 234.918 69.3708L248.858 76.0299L230.697 143.831L192.559 133.54L198.613 120.222C198.613 120.222 190.743 111.141 199.218 102.666C199.218 102.666 201.034 85.7157 206.483 82.0835C210.149 79.5578 213.592 76.7223 216.774 73.6084Z" fill="#D0CDE1"/>
<path d="M234.632 69.0681C234.632 69.0681 214.05 85.413 236.448 133.842C258.847 182.272 277.613 223.437 284.877 221.015C292.142 218.594 316.962 199.827 308.487 193.168C300.012 186.509 264.295 165.321 259.452 137.475C254.609 109.628 266.111 81.1754 266.111 81.1754L234.632 69.0681Z" fill="#575A89"/>
<path d="M257.333 87.5317L309.395 175.31L294.866 181.364L250.069 120.827L257.333 87.5317Z" fill="#575A89"/>
<path d="M195.586 131.724H191.348L175.609 165.624C175.609 165.624 145.946 255.218 148.973 273.379C152 291.54 264.6 289.096 258.544 288.513C252.782 287.959 222.807 149.917 231.605 142.317L195.586 131.724Z" fill="#2F2E41"/>
<path d="M171.977 319.387C171.977 319.387 170.766 314.544 165.923 314.544C161.08 314.544 161.08 321.203 161.08 321.203L147.157 333.916C147.157 333.916 135.049 349.05 150.789 349.05C166.528 349.05 166.528 345.418 166.528 345.418C166.528 345.418 170.766 341.18 174.398 343.602C178.03 346.023 186.505 341.18 185.295 338.759C184.084 336.337 182.275 320.672 181.061 323.359C179.846 326.046 171.977 319.387 171.977 319.387Z" fill="#2F2E41"/>
<path d="M252.49 312.123C252.49 312.123 253.701 311.517 247.648 312.123C241.594 312.728 239.172 312.123 239.172 312.123L243.41 328.468C243.41 328.468 239.778 356.315 251.885 353.893C263.992 351.472 263.992 334.521 263.992 334.521C263.992 334.521 262.176 319.387 263.387 318.176C264.598 316.966 263.992 300.621 262.176 300.621C260.36 300.621 251.595 296.698 251.595 296.698C251.595 296.698 257.333 312.123 252.49 312.123Z" fill="#2F2E41"/>
<path d="M220.6 53.0963C219.583 51.531 220.097 49.4026 219.384 47.6775C218.264 44.9687 214.783 44.3341 211.863 44.0869C209.928 43.8385 207.968 43.8438 206.035 44.1025C205.18 44.2446 204.37 44.5832 203.669 45.0918C202.968 45.6003 202.394 46.2648 201.993 47.0329C201.561 47.8996 201.67 45.1842 201.947 41.6984C202.227 38.1413 203.63 34.765 205.952 32.056C208.274 29.347 211.396 27.4451 214.869 26.6245C214.91 26.6148 214.951 26.6052 214.992 26.5959C218.548 25.7755 222.215 25.1718 225.839 25.5976C229.464 26.0235 233.077 27.5881 235.339 30.4521C236.373 31.7611 237.104 33.3047 238.258 34.5089C240.286 36.6249 243.292 37.3948 246.053 38.3766C249.219 39.3975 252.132 41.0783 254.601 43.308C256.989 45.6059 258.682 48.7547 258.732 52.0688C258.791 55.9347 256.332 59.9242 252.369 60.6864C251.68 60.8065 251.029 61.0875 250.469 61.5064C246.685 64.4401 251.001 67.5111 250.971 70.8138C250.947 73.5696 247.879 75.3657 245.126 75.4942C242.552 75.5405 240.042 74.6901 238.027 73.0889C236.011 71.4877 234.615 69.2353 234.078 66.7177C233.663 64.4561 233.984 62.1332 234.254 59.8498C234.563 57.2359 228.934 51.0811 232.652 55.5924C233.378 56.4498 233.868 57.4815 234.074 58.5857C234.693 62.1897 231.413 63.402 229.345 65.3989C228.209 66.5285 227.413 67.9537 227.046 69.5128C226.68 71.0719 226.757 72.7026 227.27 74.2199C225.565 72.6749 224.452 70.583 224.124 68.3052C223.797 66.0275 224.274 63.7067 225.475 61.7435C226.141 60.7218 226.999 59.8329 227.631 58.7895C228.617 57.1614 228.889 53.6201 226.13 53.7174C224.16 53.7868 222.114 55.4265 220.6 53.0963Z" fill="#2F2E41"/>
<path d="M83.0775 340.116C83.0775 340.116 58.7742 295.257 0 314.654L83.0775 340.116Z" fill="#D0CDE1"/>
<path d="M84.5428 339.02C84.5428 339.02 54.487 300.816 97.868 253.156L84.5428 339.02Z" fill="#D0CDE1"/>
<rect x="65.958" y="189.151" width="5.4483" height="46.7399" transform="rotate(-152.12 65.958 189.151)" fill="#EAEEF2"/>
<rect x="125.311" y="302.81" width="5.4483" height="46.7399" transform="rotate(-180 125.311 302.81)" fill="#EAEEF2"/>
<rect x="133.786" y="59.0845" width="5.4483" height="46.7399" transform="rotate(-30.746 133.786 59.0845)" fill="#EAEEF2"/>
<rect x="343.911" y="70.2732" width="5.4483" height="46.74" transform="rotate(180 343.911 70.2732)" fill="#EAEEF2"/>
</g>
<defs>
<clipPath id="clip0">
<rect width="450" height="357.223" fill="white"/>
</clipPath>
</defs>
</svg>
