<svg width="35" height="39" viewBox="0 0 35 39" fill="none" xmlns="http://www.w3.org/2000/svg">
<path fill-rule="evenodd" clip-rule="evenodd" d="M19.2633 0.582789C18.2646 -0.193918 16.7669 -0.194846 15.8218 0.583503L0.126603 13.6537L0.125283 13.655C0.0511667 13.7291 0.012159 13.8092 0.00244232 13.8947C-0.00716679 13.9792 0.0123072 14.0651 0.0480526 14.1509C0.108537 14.2961 0.220427 14.451 0.335927 14.611C0.355364 14.6379 0.374903 14.6649 0.394317 14.6921L0.39512 14.6932L1.65367 16.2254C1.79411 16.3939 1.93397 16.4792 2.09158 16.4749C2.24576 16.4707 2.40534 16.3807 2.5864 16.231L17.1864 4.09163C17.3335 3.96607 17.4406 3.91766 17.5416 3.92094C17.6442 3.92427 17.7517 3.98051 17.9003 4.09227L32.4995 16.2309L32.5003 16.2316C32.671 16.3662 32.8168 16.4563 32.966 16.4644C33.1184 16.4727 33.2625 16.3954 33.4296 16.2284L33.4307 16.2272L34.7441 14.695L34.7449 14.694L34.7457 14.6929C34.9135 14.4691 35 14.242 35 14.0258C35 13.8088 34.9129 13.6072 34.7419 13.4363L34.7405 13.4348L30.2637 9.77701L30.0513 9.19292V1.65411C30.0513 1.4293 29.9952 1.20008 29.8504 1.02636C29.7046 0.851325 29.4734 0.738193 29.1354 0.738193H25.1984C24.9141 0.738193 24.7226 0.838496 24.6042 1.00869C24.4878 1.17606 24.4465 1.40484 24.4465 1.65411V4.84813L19.2641 0.583494L19.2633 0.582789ZM15.8741 0.646702C16.7879 -0.105789 18.2426 -0.106782 19.2125 0.647191L24.5285 5.02185V1.65411C24.5285 1.41125 24.5692 1.20258 24.6715 1.05553C24.7719 0.911302 24.9358 0.820215 25.1984 0.820215H29.1354C29.4536 0.820215 29.6599 0.925814 29.7874 1.07887C29.9161 1.23324 29.9693 1.44148 29.9693 1.65411V9.20736L30.1944 9.82625L34.6854 13.4957C34.8416 13.6526 34.918 13.8333 34.918 14.0258C34.918 14.2194 34.8407 14.4293 34.6809 14.6426L33.3705 16.1715C33.21 16.3317 33.0878 16.3889 32.9704 16.3825C32.8497 16.3759 32.7222 16.3021 32.5515 16.1675L17.9512 4.02792C17.8012 3.91503 17.6748 3.8432 17.5443 3.83896C17.4122 3.83468 17.2857 3.89908 17.1338 4.02874L2.53413 16.1678C2.35555 16.3154 2.21431 16.3895 2.08932 16.3929C1.96775 16.3963 1.84983 16.3327 1.71691 16.1732L0.460257 14.6433C0.440478 14.6156 0.420825 14.5884 0.401473 14.5616C0.285452 14.4008 0.18026 14.255 0.123765 14.1194C0.0911558 14.0411 0.0764546 13.9698 0.0839395 13.904C0.0912662 13.8395 0.12027 13.7765 0.181991 13.7143L15.8741 0.646702Z" fill="#CC2B5E"/>
<path fill-rule="evenodd" clip-rule="evenodd" d="M24.2848 33.5909C25.7816 34.1 27.4076 33.2994 27.9168 31.8026C28.4259 30.3059 27.6253 28.6798 26.1285 28.1707C24.6318 27.6616 23.0057 28.4622 22.4965 29.9589C21.9874 31.4557 22.7881 33.0818 24.2848 33.5909ZM27.7615 31.7498C27.2815 33.1608 25.7486 33.9155 24.3376 33.4356C22.9267 32.9557 22.1719 31.4227 22.6519 30.0118C23.1318 28.6008 24.6647 27.846 26.0757 28.326C27.4867 28.8059 28.2414 30.3388 27.7615 31.7498Z" fill="#CC2B5E"/>
<path fill-rule="evenodd" clip-rule="evenodd" d="M18.1434 29.9107H6.27856C5.91204 29.9107 5.60015 29.7695 5.38019 29.5282C5.1605 29.2873 5.03456 28.9489 5.03456 28.5574V16.3061C5.03456 16.1988 5.03456 16.1003 5.04879 16.0149C5.06333 15.9277 5.09326 15.8503 5.15594 15.7876L5.15733 15.7862L17.2997 5.77693L17.3015 5.77578C17.3865 5.71907 17.4629 5.68687 17.5429 5.68687C17.6229 5.68687 17.6994 5.71907 17.7844 5.77578L17.7861 5.77693L29.9285 15.7862L29.9299 15.7876C29.9926 15.8503 30.0225 15.9277 30.0371 16.0149C30.0513 16.1003 30.0513 16.1988 30.0513 16.306V25.6058C30.7423 26.2304 31.3316 27.0139 31.774 27.9496C33.2465 31.0641 32.2759 35.1084 28.6245 37.2086C25.969 38.7359 22.161 38.0482 19.7212 35.3954C19.5604 35.1746 19.4376 35.1323 19.1766 35.2101L17.4154 35.6238C16.8689 35.7417 16.2952 35.3441 16.5424 34.6176L18.1434 29.9107ZM5.21259 15.8469L17.3487 5.84288C17.4268 5.79104 17.4866 5.76889 17.5429 5.76889C17.5992 5.76889 17.659 5.79104 17.7372 5.84288L29.8733 15.8469C29.9191 15.8934 29.9435 15.9523 29.9562 16.0284C29.9692 16.1064 29.9693 16.1983 29.9693 16.3087V25.5302C29.954 25.5177 29.9387 25.5053 29.9234 25.493C28.6327 24.3823 27.0089 23.8082 25.3321 23.8126C25.1768 23.8091 25.0184 23.8092 24.8566 23.8128V19.863C24.8566 19.7264 24.8435 19.6192 24.795 19.5464C24.7431 19.4685 24.658 19.4392 24.5422 19.4392H19.5661C19.518 19.4392 19.4757 19.4514 19.44 19.4752C19.4046 19.4988 19.3781 19.5322 19.3586 19.5713C19.3201 19.6482 19.3064 19.7516 19.3064 19.863V26.7888C19.2939 26.8094 19.2819 26.8294 19.2704 26.8486C19.1477 27.0454 19.05 27.2454 18.9816 27.4464L18.1698 29.8287H6.27856C5.93423 29.8287 5.64463 29.6965 5.4408 29.473C5.23671 29.2491 5.11658 28.9314 5.11658 28.5574V16.3087C5.11658 16.1983 5.1167 16.1064 5.1297 16.0284C5.14237 15.9523 5.16677 15.8934 5.21259 15.8469ZM16.62 34.644C16.505 34.9821 16.5838 35.2284 16.7384 35.3785C16.8967 35.5321 17.1473 35.5975 17.3974 35.5438L19.1555 35.1308C19.2902 35.0909 19.4057 35.0766 19.5129 35.1132C19.6194 35.1495 19.7022 35.2306 19.7847 35.3432C22.2027 37.9695 25.9674 38.6422 28.5836 37.1375C32.1976 35.0588 33.1543 31.0609 31.6998 27.9846C31.2352 27.0019 30.6066 26.1888 29.8677 25.5535C28.508 24.4584 27.1376 23.9343 25.3277 23.8945C24.854 23.896 24.3761 23.9443 23.9003 24.0401C22.0842 24.4352 20.5944 25.4162 19.7071 26.3963L19.4 26.7989C19.3795 26.8297 19.3596 26.8605 19.3403 26.8914C19.1987 27.1291 19.1364 27.2651 19.058 27.4775L16.62 34.644ZM23.8792 23.9608C23.2336 24.0913 22.5921 24.3085 21.9704 24.6149C20.9175 25.1336 19.9535 25.8697 19.3884 26.6709V19.863C19.3884 19.7558 19.4021 19.6677 19.4319 19.608C19.4466 19.5786 19.4645 19.5574 19.4855 19.5434C19.5062 19.5296 19.5323 19.5213 19.5661 19.5213H24.5422C24.6451 19.5213 24.6966 19.5467 24.7268 19.5919C24.7602 19.6421 24.7745 19.7262 24.7745 19.863V23.8176C24.4686 23.8489 24.1697 23.8974 23.8792 23.9608Z" fill="#CC2B5E"/>
<path fill-rule="evenodd" clip-rule="evenodd" d="M16.62 34.644C16.505 34.9821 16.5838 35.2284 16.7384 35.3785C16.8967 35.5321 17.1473 35.5975 17.3974 35.5438L19.1555 35.1308C19.2902 35.0909 19.4057 35.0766 19.5129 35.1132C19.6194 35.1495 19.7022 35.2306 19.7847 35.3432C22.2027 37.9695 25.9674 38.6422 28.5836 37.1375C32.1976 35.0588 33.1543 31.0609 31.6998 27.9846C31.2352 27.0019 30.6066 26.1888 29.8677 25.5535C28.508 24.4584 27.1376 23.9343 25.3277 23.8945C24.854 23.896 24.3761 23.9443 23.9003 24.0401C22.0842 24.4352 20.5944 25.4162 19.7071 26.3963L19.4 26.7989C19.3795 26.8297 19.3596 26.8605 19.3403 26.8914C19.1987 27.1291 19.1364 27.2651 19.058 27.4775L16.62 34.644ZM24.2848 33.5909C25.7816 34.1 27.4076 33.2994 27.9168 31.8026C28.4259 30.3059 27.6253 28.6798 26.1285 28.1707C24.6318 27.6616 23.0057 28.4622 22.4965 29.9589C21.9874 31.4557 22.7881 33.0818 24.2848 33.5909Z" fill="#CC2B5E"/>
<path d="M15.8741 0.646702L0.181991 13.7143C0.12027 13.7765 0.0912662 13.8395 0.0839395 13.904C0.0764546 13.9698 0.0911558 14.0411 0.123765 14.1194C0.18026 14.255 0.285452 14.4008 0.401473 14.5616C0.420825 14.5884 0.440478 14.6156 0.460257 14.6433L1.71691 16.1732C1.84983 16.3327 1.96775 16.3963 2.08932 16.3929C2.21431 16.3895 2.35555 16.3154 2.53413 16.1678L17.1338 4.02874C17.2857 3.89908 17.4122 3.83468 17.5443 3.83896C17.6748 3.8432 17.8012 3.91503 17.9512 4.02792L32.5515 16.1675C32.7222 16.3021 32.8497 16.3759 32.9704 16.3825C33.0878 16.3889 33.21 16.3317 33.3705 16.1715L34.6809 14.6426C34.8407 14.4293 34.918 14.2194 34.918 14.0258C34.918 13.8333 34.8416 13.6526 34.6854 13.4957L30.1944 9.82625L29.9693 9.20736V1.65411C29.9693 1.44148 29.9161 1.23324 29.7874 1.07887C29.6599 0.925814 29.4536 0.820215 29.1354 0.820215H25.1984C24.9358 0.820215 24.7719 0.911302 24.6715 1.05553C24.5692 1.20258 24.5285 1.41125 24.5285 1.65411V5.02185L19.2125 0.647191C18.2426 -0.106782 16.7879 -0.105789 15.8741 0.646702Z" fill="#CC2B5E"/>
<path fill-rule="evenodd" clip-rule="evenodd" d="M17.3487 5.84288L5.21259 15.8469C5.16677 15.8934 5.14237 15.9523 5.1297 16.0284C5.1167 16.1064 5.11658 16.1983 5.11658 16.3087V28.5574C5.11658 28.9314 5.23671 29.2491 5.4408 29.473C5.64463 29.6965 5.93423 29.8287 6.27856 29.8287H18.1698L18.9816 27.4464C19.05 27.2454 19.1477 27.0454 19.2704 26.8486C19.2819 26.8294 19.2939 26.8094 19.3064 26.7888V19.863C19.3064 19.7516 19.3201 19.6482 19.3586 19.5713C19.3781 19.5322 19.4046 19.4988 19.44 19.4752C19.4757 19.4514 19.518 19.4392 19.5661 19.4392H24.5422C24.658 19.4392 24.7431 19.4685 24.795 19.5464C24.8435 19.6192 24.8566 19.7264 24.8566 19.863V23.8128C25.0184 23.8092 25.1768 23.8091 25.3321 23.8126C27.0089 23.8082 28.6327 24.3823 29.9234 25.493C29.9387 25.5053 29.954 25.5177 29.9693 25.5302V16.3087C29.9693 16.1983 29.9692 16.1064 29.9562 16.0284C29.9435 15.9523 29.9191 15.8934 29.8733 15.8469L17.7372 5.84288C17.659 5.79104 17.5992 5.76889 17.5429 5.76889C17.4866 5.76889 17.4268 5.79104 17.3487 5.84288ZM12.0201 18.8241H9.3954C9.2746 18.8241 9.17668 18.922 9.17668 19.0428V21.6675H12.0201V18.8241ZM12.6763 18.8241H15.301C15.4218 18.8241 15.5197 18.922 15.5197 19.0428V21.6675H12.6763V18.8241ZM12.0201 25.1671H9.3954C9.2746 25.1671 9.17668 25.0692 9.17668 24.9484V22.3237H12.0201V25.1671ZM12.6763 25.1671H15.301C15.4218 25.1671 15.5197 25.0692 15.5197 24.9484V22.3237H12.6763V25.1671Z" fill="#CC2B5E"/>
</svg>
