<svg viewBox="0 0 12 12" fill="none" xmlns="http://www.w3.org/2000/svg">
<path d="M5.81619 8.04425C5.47309 8.04425 5.19531 8.33019 5.19531 8.67331C5.19531 9.00826 5.46491 9.30238 5.81619 9.30238C6.16746 9.30238 6.44524 9.00828 6.44524 8.67331C6.44524 8.33019 6.15933 8.04425 5.81619 8.04425Z" fill="currentColor"/>
<path d="M5.92239 3.28131C4.8195 3.28131 4.31299 3.93486 4.31299 4.37603C4.31299 4.69466 4.58257 4.8417 4.80316 4.8417C5.2443 4.8417 5.06458 4.21264 5.89788 4.21264C6.30637 4.21264 6.63316 4.39239 6.63316 4.76818C6.63316 5.20937 6.17566 5.46261 5.90606 5.69136C5.66915 5.89559 5.3587 6.23056 5.3587 6.93314C5.3587 7.35794 5.47305 7.4805 5.80802 7.4805C6.20833 7.4805 6.29001 7.30078 6.29001 7.14556C6.29001 6.72073 6.29821 6.47564 6.74753 6.12436C6.96811 5.9528 7.66254 5.39726 7.66254 4.62931C7.66254 3.86136 6.96811 3.28131 5.92239 3.28131Z" fill="currentColor"/>
<path d="M6 0C2.68397 0 0 2.68352 0 6V11.5312C0 11.7901 0.209859 12 0.46875 12H6C9.31601 12 12 9.31648 12 6C12 2.68397 9.31648 0 6 0ZM6 11.0625H0.9375V6C0.9375 3.2021 3.20173 0.9375 6 0.9375C8.7979 0.9375 11.0625 3.20173 11.0625 6C11.0625 8.7979 8.79827 11.0625 6 11.0625Z" fill="currentColor"/>
</svg>
