<svg width="40" height="35" viewBox="0 0 40 45" fill="none" xmlns="http://www.w3.org/2000/svg">
<path fill-rule="evenodd" clip-rule="evenodd" d="M22.0152 0.685472C20.8739 -0.228085 19.1622 -0.229176 18.082 0.686313L0.144689 16.0594L0.143181 16.0609C0.0584762 16.1481 0.013896 16.2423 0.00279122 16.3428C-0.00819062 16.4423 0.0140654 16.5433 0.0549173 16.6442C0.124042 16.8149 0.251917 16.9972 0.383917 17.1853C0.40613 17.217 0.428461 17.2488 0.450648 17.2808L0.451566 17.2821L1.88991 19.0842C2.05041 19.2824 2.21025 19.3828 2.39037 19.3777C2.56658 19.3727 2.74896 19.2668 2.95588 19.0907L19.6416 4.81254C19.8097 4.66486 19.9321 4.60793 20.0476 4.61179C20.1649 4.6157 20.2876 4.68185 20.4575 4.8133L37.1422 19.0907L37.1432 19.0914C37.3383 19.2498 37.5049 19.3558 37.6754 19.3653C37.8496 19.375 38.0143 19.2842 38.2052 19.0877L38.2065 19.0864L39.7075 17.2841L39.7085 17.2829L39.7094 17.2817C39.9012 17.0185 40 16.7513 40 16.497C40 16.2418 39.9004 16.0047 39.7051 15.8037L39.7034 15.802L34.5871 11.4997L34.3444 10.8126V1.94555C34.3444 1.68113 34.2802 1.41153 34.1148 1.2072C33.9481 1.00132 33.6839 0.868257 33.2976 0.868257H28.7981C28.4733 0.868257 28.2544 0.986233 28.1191 1.18641C27.986 1.38327 27.9389 1.65237 27.9389 1.94555V5.70234L22.0162 0.686301L22.0152 0.685472ZM18.1418 0.760646C19.1862 -0.124429 20.8487 -0.125597 21.9571 0.761221L28.0326 5.90667V1.94555C28.0326 1.6599 28.0791 1.41447 28.1961 1.24151C28.3107 1.07187 28.4981 0.964731 28.7981 0.964731H33.2976C33.6613 0.964731 33.897 1.08894 34.0428 1.26896C34.1898 1.45053 34.2506 1.69546 34.2506 1.94555V10.8296L34.5078 11.5576L39.6404 15.8736C39.8189 16.058 39.9063 16.2706 39.9063 16.497C39.9063 16.7247 39.8179 16.9716 39.6353 17.2225L38.1377 19.0208C37.9543 19.2092 37.8146 19.2765 37.6805 19.269C37.5425 19.2613 37.3968 19.1744 37.2017 19.0161L20.5156 4.73761C20.3442 4.60483 20.1997 4.52034 20.0506 4.51536C19.8997 4.51032 19.7551 4.58607 19.5814 4.73857L2.89615 19.0164C2.69206 19.19 2.53064 19.2772 2.3878 19.2812C2.24886 19.2852 2.11409 19.2104 1.96218 19.0228L0.526008 17.2234C0.503403 17.1908 0.480943 17.1588 0.458826 17.1272C0.326231 16.9381 0.206012 16.7666 0.141446 16.6071C0.104178 16.5151 0.0873767 16.4312 0.0959309 16.3537C0.104304 16.2779 0.137451 16.2038 0.20799 16.1307L18.1418 0.760646Z" fill="white"/>
<path fill-rule="evenodd" clip-rule="evenodd" d="M27.7541 39.5094C29.4646 40.1082 31.323 39.1665 31.9049 37.406C32.4867 35.6456 31.5717 33.733 29.8612 33.1342C28.1506 32.5353 26.2922 33.477 25.7103 35.2375C25.1285 36.998 26.0435 38.9105 27.7541 39.5094ZM31.7274 37.3439C31.1789 39.0035 29.427 39.8912 27.8144 39.3267C26.2019 38.7622 25.3393 36.9592 25.8878 35.2996C26.4363 33.64 28.1882 32.7523 29.8008 33.3168C31.4133 33.8813 32.2759 35.6843 31.7274 37.3439Z" fill="white"/>
<path fill-rule="evenodd" clip-rule="evenodd" d="M20.7353 35.1808H7.1755C6.75662 35.1808 6.40017 35.0147 6.14879 34.7309C5.89771 34.4475 5.75378 34.0495 5.75378 33.589V19.1792C5.75378 19.0529 5.75378 18.937 5.77005 18.8366C5.78666 18.734 5.82087 18.643 5.8925 18.5693L5.89409 18.5676L19.7711 6.79478L19.7731 6.79343C19.8703 6.72673 19.9577 6.68885 20.0491 6.68885C20.1405 6.68885 20.2278 6.72673 20.325 6.79343L20.327 6.79478L34.204 18.5676L34.2056 18.5693C34.2773 18.643 34.3115 18.734 34.3281 18.8366C34.3443 18.937 34.3443 19.0529 34.3443 19.1791V30.1173C35.134 30.852 35.8076 31.7736 36.3131 32.8741C37.996 36.5374 36.8868 41.2942 32.7137 43.7644C29.6789 45.5609 25.3268 44.7521 22.5385 41.6318C22.3547 41.3721 22.2144 41.3224 21.9161 41.4139L19.9033 41.9005C19.2788 42.0392 18.6231 41.5714 18.9055 40.717L20.7353 35.1808ZM5.95725 18.6391L19.827 6.87236C19.9164 6.81137 19.9847 6.78532 20.0491 6.78532C20.1134 6.78532 20.1818 6.81137 20.2711 6.87236L34.1409 18.6391C34.1932 18.6937 34.2211 18.763 34.2356 18.8525C34.2505 18.9442 34.2506 19.0524 34.2506 19.1822V30.0284C34.2331 30.0137 34.2157 29.9992 34.1982 29.9847C32.7231 28.6783 30.8674 28.0031 28.9509 28.0082C28.7735 28.0041 28.5925 28.0042 28.4075 28.0084V23.3627C28.4075 23.2021 28.3926 23.0759 28.3371 22.9903C28.2778 22.8987 28.1805 22.8643 28.0482 22.8643H22.3613C22.3062 22.8643 22.2579 22.8786 22.2172 22.9066C22.1767 22.9343 22.1464 22.9737 22.1241 23.0196C22.0801 23.1101 22.0645 23.2316 22.0645 23.3627V31.5088C22.0501 31.5331 22.0364 31.5565 22.0233 31.5792C21.8831 31.8106 21.7714 32.0459 21.6933 32.2823L20.7654 35.0843H7.1755C6.78197 35.0843 6.451 34.9289 6.21806 34.6659C5.98482 34.4026 5.84752 34.0288 5.84752 33.589V19.1822C5.84752 19.0524 5.84766 18.9442 5.86251 18.8525C5.877 18.763 5.90489 18.6937 5.95725 18.6391ZM18.9943 40.748C18.8629 41.1457 18.9529 41.4354 19.1296 41.6119C19.3105 41.7926 19.5969 41.8696 19.8828 41.8063L21.892 41.3206C22.0459 41.2736 22.1779 41.2568 22.3005 41.2998C22.4222 41.3425 22.5168 41.438 22.6111 41.5704C25.3745 44.6594 29.6771 45.4507 32.667 43.6808C36.7972 41.236 37.8906 36.5337 36.2284 32.9153C35.6973 31.7594 34.979 30.803 34.1346 30.0558C32.5806 28.7677 31.0144 28.1514 28.9459 28.1046C28.4046 28.1064 27.8584 28.1631 27.3146 28.2758C25.2391 28.7405 23.5365 29.8943 22.5224 31.0472L22.1715 31.5207C22.148 31.5569 22.1253 31.5932 22.1032 31.6295C21.9414 31.909 21.8702 32.069 21.7805 32.3188L18.9943 40.748ZM27.2905 28.1825C26.5527 28.336 25.8195 28.5915 25.109 28.9518C23.9057 29.562 22.8039 30.4277 22.1582 31.3701V23.3627C22.1582 23.2366 22.1738 23.133 22.2079 23.0627C22.2247 23.0283 22.2452 23.0033 22.2692 22.9868C22.2928 22.9706 22.3226 22.9608 22.3613 22.9608H28.0482C28.1658 22.9608 28.2247 22.9907 28.2591 23.0438C28.2974 23.1029 28.3138 23.2018 28.3138 23.3627V28.0141C27.9641 28.051 27.6226 28.108 27.2905 28.1825Z" fill="white"/>
<path fill-rule="evenodd" clip-rule="evenodd" d="M18.9943 40.748C18.8629 41.1457 18.9529 41.4354 19.1296 41.6119C19.3105 41.7926 19.5969 41.8696 19.8828 41.8063L21.892 41.3206C22.0459 41.2736 22.1779 41.2568 22.3005 41.2998C22.4222 41.3425 22.5168 41.438 22.6111 41.5704C25.3745 44.6594 29.6771 45.4507 32.667 43.6808C36.7972 41.236 37.8906 36.5337 36.2284 32.9153C35.6973 31.7594 34.979 30.803 34.1346 30.0558C32.5806 28.7677 31.0144 28.1514 28.9459 28.1046C28.4046 28.1064 27.8584 28.1631 27.3146 28.2758C25.2391 28.7405 23.5365 29.8943 22.5224 31.0472L22.1715 31.5207C22.148 31.5569 22.1253 31.5932 22.1032 31.6295C21.9414 31.909 21.8702 32.069 21.7805 32.3188L18.9943 40.748ZM27.7541 39.5094C29.4646 40.1082 31.323 39.1665 31.9049 37.406C32.4867 35.6456 31.5717 33.733 29.8612 33.1342C28.1506 32.5353 26.2922 33.477 25.7103 35.2375C25.1285 36.998 26.0435 38.9105 27.7541 39.5094Z" fill="white"/>
<path d="M18.1418 0.760646L0.20799 16.1307C0.137451 16.2038 0.104304 16.2779 0.0959309 16.3537C0.0873767 16.4312 0.104178 16.5151 0.141446 16.6071C0.206012 16.7666 0.326231 16.9381 0.458826 17.1272C0.480943 17.1588 0.503403 17.1908 0.526008 17.2234L1.96218 19.0228C2.11409 19.2104 2.24886 19.2852 2.3878 19.2812C2.53064 19.2772 2.69206 19.19 2.89615 19.0164L19.5814 4.73857C19.7551 4.58607 19.8997 4.51032 20.0506 4.51536C20.1997 4.52034 20.3442 4.60483 20.5156 4.73761L37.2017 19.0161C37.3968 19.1744 37.5425 19.2613 37.6805 19.269C37.8146 19.2765 37.9543 19.2092 38.1377 19.0208L39.6353 17.2225C39.8179 16.9716 39.9063 16.7247 39.9063 16.497C39.9063 16.2706 39.8189 16.058 39.6404 15.8736L34.5078 11.5576L34.2506 10.8296V1.94555C34.2506 1.69546 34.1898 1.45053 34.0428 1.26896C33.897 1.08894 33.6613 0.964731 33.2976 0.964731H28.7981C28.4981 0.964731 28.3107 1.07187 28.1961 1.24151C28.0791 1.41447 28.0326 1.6599 28.0326 1.94555V5.90667L21.9571 0.761221C20.8487 -0.125597 19.1862 -0.124429 18.1418 0.760646Z" fill="white"/>
<path fill-rule="evenodd" clip-rule="evenodd" d="M19.827 6.87236L5.95725 18.6391C5.90489 18.6937 5.877 18.763 5.86251 18.8525C5.84766 18.9442 5.84752 19.0524 5.84752 19.1822V33.589C5.84752 34.0288 5.98482 34.4026 6.21806 34.6659C6.451 34.9289 6.78197 35.0843 7.1755 35.0843H20.7654L21.6933 32.2823C21.7714 32.0459 21.8831 31.8106 22.0233 31.5792C22.0364 31.5565 22.0501 31.5331 22.0645 31.5088V23.3627C22.0645 23.2316 22.0801 23.1101 22.1241 23.0196C22.1464 22.9737 22.1767 22.9343 22.2172 22.9066C22.2579 22.8786 22.3062 22.8643 22.3613 22.8643H28.0482C28.1805 22.8643 28.2778 22.8987 28.3371 22.9903C28.3926 23.0759 28.4075 23.2021 28.4075 23.3627V28.0084C28.5925 28.0042 28.7735 28.0041 28.9509 28.0082C30.8674 28.0031 32.7231 28.6783 34.1982 29.9847C34.2157 29.9992 34.2331 30.0137 34.2506 30.0284V19.1822C34.2506 19.0524 34.2505 18.9442 34.2356 18.8525C34.2211 18.763 34.1932 18.6937 34.1409 18.6391L20.2711 6.87236C20.1818 6.81137 20.1134 6.78532 20.0491 6.78532C19.9847 6.78532 19.9164 6.81137 19.827 6.87236ZM13.7373 22.1407H10.7376C10.5995 22.1407 10.4876 22.2559 10.4876 22.398V25.4852H13.7373V22.1407ZM14.4872 22.1407H17.4868C17.6249 22.1407 17.7368 22.2559 17.7368 22.398V25.4852H14.4872V22.1407ZM13.7373 29.6014H10.7376C10.5995 29.6014 10.4876 29.4862 10.4876 29.3441V26.257H13.7373V29.6014ZM14.4872 29.6014H17.4868C17.6249 29.6014 17.7368 29.4862 17.7368 29.3441V26.257H14.4872V29.6014Z" fill="white"/>
</svg>
