<svg viewBox="0 0 12 12" fill="none" xmlns="http://www.w3.org/2000/svg">
<path d="M8.46094 9.1875V10.125C8.46094 11.1589 7.61984 12 6.58594 12H1.875C0.841095 12 0 11.1589 0 10.125V1.875C0 0.841095 0.841095 0 1.875 0H6.58594C7.61984 0 8.46094 0.841095 8.46094 1.875V2.8125C8.46094 3.07141 8.2511 3.28125 7.99219 3.28125C7.73328 3.28125 7.52344 3.07141 7.52344 2.8125V1.875C7.52344 1.35809 7.10284 0.9375 6.58594 0.9375H1.875C1.35809 0.9375 0.9375 1.35809 0.9375 1.875V10.125C0.9375 10.6419 1.35809 11.0625 1.875 11.0625H6.58594C7.10284 11.0625 7.52344 10.6419 7.52344 10.125V9.1875C7.52344 8.92859 7.73328 8.71875 7.99219 8.71875C8.2511 8.71875 8.46094 8.92859 8.46094 9.1875ZM11.6568 5.19479L10.6071 4.14514C10.424 3.96204 10.1272 3.96204 9.94418 4.14514C9.76108 4.32816 9.76108 4.62497 9.94418 4.80798L10.6908 5.55469H5.0625C4.80359 5.55469 4.59375 5.76453 4.59375 6.02344C4.59375 6.28235 4.80359 6.49219 5.0625 6.49219H10.6908L9.94418 7.23889C9.76108 7.42191 9.76108 7.71872 9.94418 7.90173C10.0357 7.99329 10.1557 8.03906 10.2756 8.03906C10.3956 8.03906 10.5156 7.99329 10.6071 7.90173L11.6568 6.85208C12.1137 6.39514 12.1137 5.65173 11.6568 5.19479Z" fill="currentColor"/>
</svg>
